# xmcd CD database file
#
# Track frame offsets:
#	150
#	15764
#	28297
#	40427
#	53151
#	67272
#	80194
#	94436
#	106329
#	118058
#	131086
#	143029
#	156339
#	172139
#	187499
#	202889
#	222266
#	241174
#	260082
#	278575
#	296041
#	312159
#	327616
#	339626
#
# Disc length: 4690 seconds
#
# Revision: 0
# Processed by: cddbd v1.5.2PL0 Copyright (c) Steve Scherf et al.
# Submitted via: CDex 1.70beta2
#
DISCID=85125018
DTITLE=Ben Webster - Giants of Jazz Disc 1
DYEAR=1900
DGENRE=Jazz
TTITLE0=Toby: Bennie Moten’s Kansas City Orchestra
TTITLE1=Lafayette: Bennie Moten’s Kansas City Orchestra
TTITLE2=Limehouse Blues: Fletcher Henderson and His Orchestra 
TTITLE3=Happy as the Day Is Long: Fletcher Henderson and His Orchestra 
TTITLE4=Dream Lullaby: Benny Carter and His Orchestra
TTITLE5=A Sunbonnet Blue (and a Yellow Straw Hat): Teddy Wilson and His Orchestra 
TTITLE6=The Voice of Old Man River: Willie Bryant and His Orchestra 
TTITLE7=I’ll See You in My Dreams: Teddy Wilson and His Orchestra 
TTITLE8=Congo: Cab Calloway and His Orchestra
TTITLE9=Exactly Like You: Teddy Wilson and His Orchestra
TTITLE10=Early Session Hop: Lionel Hampton and His Orchestra
TTITLE11=Conga Brava: Duke Ellington and His Famous Orchestra
TTITLE12=All Too Soon: Duke Ellington and His Famous Orchestra 
TTITLE13=Chloe: Duke Ellington and His Famous Orchestra
TTITLE14=Linger Awhile: Rex Stewart and His Orchestra
TTITLE15=Star Dust: Duke Ellington and His Famous Orchestra 
TTITLE16=St. James Infirmary: Jack Teagarden’s Big Eight 
TTITLE17=19401215 Mx 3414 St James Infirmary-Jack Teagarden's Big Eight (Webster)
TTITLE18=The World Is Waiting for the Sunrise: Jack Teagarden’s Big Eight 
TTITLE19=Shine: Jack Teagarden’s Big Eight
TTITLE20=Just A-Settin’ and A-Rockin’: Duke Ellington and His Famous Orchestra 
TTITLE21=What Am I Here For?: Duke Ellington and His Famous Orchestra 
TTITLE22=Palm Springs Jump: Slim Gaillard and His Flat Foot Floogie Boys 
TTITLE23=Ra‑Da‑Da‑Da: Slim Gaillard and His Flat Foot Floogie Boys 
EXTD=
EXTT0=
EXTT1=
EXTT2=
EXTT3=
EXTT4=
EXTT5=
EXTT6=
EXTT7=
EXTT8=
EXTT9=
EXTT10=
EXTT11=
EXTT12=
EXTT13=
EXTT14=
EXTT15=
EXTT16=
EXTT17=
EXTT18=
EXTT19=
EXTT20=
EXTT21=
EXTT22=
EXTT23=
PLAYORDER=
